<svg xmlns="http://www.w3.org/2000/svg" version="1.1" xmlns:xlink="http://www.w3.org/1999/xlink" width="1000" height="1000"><style>
    #light-icon {
      display: inline;
    }
    #dark-icon {
      display: none;
    }

    @media (prefers-color-scheme: dark) {
      #light-icon {
        display: none;
      }
      #dark-icon {
        display: inline;
      }
    }
  </style><g id="light-icon"><svg xmlns="http://www.w3.org/2000/svg" version="1.1" xmlns:xlink="http://www.w3.org/1999/xlink" width="1000" height="1000"><g clip-path="url(#SvgjsClipPath1025)"><rect width="1000" height="1000" fill="#151a3d"></rect><g transform="matrix(29.166666666666668,0,0,29.166666666666668,150,150)"><svg xmlns="http://www.w3.org/2000/svg" version="1.1" xmlns:xlink="http://www.w3.org/1999/xlink" width="24px" height="24px"><svg xmlns="http://www.w3.org/2000/svg" height="24px" viewBox="0 -960 960 960" width="24px" fill="#009ef7"><path d="M200-200v-560 560Zm0 80q-33 0-56.5-23.5T120-200v-560q0-33 23.5-56.5T200-840h560q33 0 56.5 23.5T840-760v100h-80v-100H200v560h560v-100h80v100q0 33-23.5 56.5T760-120H200Zm320-160q-33 0-56.5-23.5T440-360v-240q0-33 23.5-56.5T520-680h280q33 0 56.5 23.5T880-600v240q0 33-23.5 56.5T800-280H520Zm280-80v-240H520v240h280Zm-160-60q25 0 42.5-17.5T700-480q0-25-17.5-42.5T640-540q-25 0-42.5 17.5T580-480q0 25 17.5 42.5T640-420Z"></path></svg></svg></g></g><defs><clipPath id="SvgjsClipPath1025"><rect width="1000" height="1000" x="0" y="0" rx="350" ry="350"></rect></clipPath></defs></svg></g><g id="dark-icon"><svg xmlns="http://www.w3.org/2000/svg" version="1.1" xmlns:xlink="http://www.w3.org/1999/xlink" width="1000" height="1000"><g clip-path="url(#SvgjsClipPath1026)"><rect width="1000" height="1000" fill="#191d4b"></rect><g transform="matrix(29.166666666666668,0,0,29.166666666666668,150,150)"><svg xmlns="http://www.w3.org/2000/svg" version="1.1" xmlns:xlink="http://www.w3.org/1999/xlink" width="24px" height="24px"><svg xmlns="http://www.w3.org/2000/svg" height="24px" viewBox="0 -960 960 960" width="24px" fill="#009ef7"><path d="M200-200v-560 560Zm0 80q-33 0-56.5-23.5T120-200v-560q0-33 23.5-56.5T200-840h560q33 0 56.5 23.5T840-760v100h-80v-100H200v560h560v-100h80v100q0 33-23.5 56.5T760-120H200Zm320-160q-33 0-56.5-23.5T440-360v-240q0-33 23.5-56.5T520-680h280q33 0 56.5 23.5T880-600v240q0 33-23.5 56.5T800-280H520Zm280-80v-240H520v240h280Zm-160-60q25 0 42.5-17.5T700-480q0-25-17.5-42.5T640-540q-25 0-42.5 17.5T580-480q0 25 17.5 42.5T640-420Z"></path></svg></svg></g></g><defs><clipPath id="SvgjsClipPath1026"><rect width="1000" height="1000" x="0" y="0" rx="350" ry="350"></rect></clipPath></defs></svg></g></svg>